<svg xmlns="http://www.w3.org/2000/svg" viewBox="0 0 841.9 595.3"><g fill="#61DAFB"><path d="M666.3 296.5c0 45.9-37.2 83.1-83.1 83.1-45.9 0-83.1-37.2-83.1-83.1 0-45.9 37.2-83.1 83.1-83.1 45.9 0 83.1 37.2 83.1 83.1zM520.5 78.1c-45.7 0-86.7 10.5-112.2 28.1 4.2 2.3 8.2 4.7 12.1 7.3 20.3 13.2 36.3 29 48.7 46.2 21.4 29.6 33 61.1 33 90.5 0 29.6-11.6 61.1-33 90.7 12.4 17.1 28.4 32.9 48.7 46.1 3.9 2.6 7.9 5 12.1 7.3 25.5 17.6 66.5 28.1 112.2 28.1 52.4 0 95.2-11.7 120.1-30.9 23.9-18.6 36.8-43.1 36.1-70.7-.7-27.7-14.2-51.9-37.6-67.3-6.2-4.2-13.1-7.8-20.5-11.1-16-7.1-34.6-12.9-55.4-17.3-35.5-7.4-76.1-11.7-119.2-11.7-43.1 0-83.6 4.2-119.2 11.7-20.7 4.3-39.4 10.1-55.4 17.3-7.4 3.3-14.3 7-20.5 11.1-23.4 15.4-37 39.5-37.6 67.3-.6 27.7 12.2 52.1 36.1 70.7 24.8 19.2 67.7 30.9 120.1 30.9 52.4 0 95.2-11.7 120.1-30.9 23.9-18.6 36.8-43.1 36.1-70.7-.7-27.7-14.2-51.9-37.6-67.3-6.2-4.2-13.1-7.8-20.5-11.1-16-7.1-34.6-12.9-55.4-17.3-35.5-7.4-76.1-11.7-119.2-11.7-43.1 0-83.6 4.2-119.2 11.7-20.7 4.3-39.4 10.1-55.4 17.3-7.4 3.3-14.3 7-20.5 11.1-23.4 15.4-37 39.5-37.6 67.3-.6 27.7 12.2 52.1 36.1 70.7 24.8 19.2 67.7 30.9 120.1 30.9 52.4 0 95.2-11.7 120.1-30.9 23.9-18.6 36.8-43.1 36.1-70.7-.7-27.7-14.2-51.9-37.6-67.3-6.2-4.2-13.1-7.8-20.5-11.1-16-7.1-34.6-12.9-55.4-17.3-35.5-7.4-76.1-11.7-119.2-11.7-43.1 0-83.6 4.2-119.2 11.7-20.7 4.3-39.4 10.1-55.4 17.3-7.4 3.3-14.3 7-20.5 11.1-23.4 15.4-37 39.5-37.6 67.3-.6 27.7 12.2 52.1 36.1 70.7 24.8 19.2 67.7 30.9 120.1 30.9 52.4 0 95.2-11.7 120.1-30.9 23.9-18.6 36.8-43.1 36.1-70.7-.7-27.7-14.2-51.9-37.6-67.3-6.2-4.2-13.1-7.8-20.5-11.1-16-7.1-34.6-12.9-55.4-17.3-35.5-7.4-76.1-11.7-119.2-11.7z"/><circle cx="420.9" cy="296.5" r="45.7"/><path d="M520.5 78.1c-45.7 0-86.7 10.5-112.2 28.1 4.2 2.3 8.2 4.7 12.1 7.3 20.3 13.2 36.3 29 48.7 46.2 21.4 29.6 33 61.1 33 90.5 0 29.6-11.6 61.1-33 90.7 12.4 17.1 28.4 32.9 48.7 46.1 3.9 2.6 7.9 5 12.1 7.3 25.5 17.6 66.5 28.1 112.2 28.1 52.4 0 95.2-11.7 120.1-30.9 23.9-18.6 36.8-43.1 36.1-70.7-.7-27.7-14.2-51.9-37.6-67.3-6.2-4.2-13.1-7.8-20.5-11.1-16-7.1-34.6-12.9-55.4-17.3-35.5-7.4-76.1-11.7-119.2-11.7-43.1 0-83.6 4.2-119.2 11.7-20.7 4.3-39.4 10.1-55.4 17.3-7.4 3.3-14.3 7-20.5 11.1-23.4 15.4-37 39.5-37.6 67.3-.6 27.7 12.2 52.1 36.1 70.7 24.8 19.2 67.7 30.9 120.1 30.9 52.4 0 95.2-11.7 120.1-30.9 23.9-18.6 36.8-43.1 36.1-70.7-.7-27.7-14.2-51.9-37.6-67.3-6.2-4.2-13.1-7.8-20.5-11.1-16-7.1-34.6-12.9-55.4-17.3-35.5-7.4-76.1-11.7-119.2-11.7-43.1 0-83.6 4.2-119.2 11.7-20.7 4.3-39.4 10.1-55.4 17.3-7.4 3.3-14.3 7-20.5 11.1-23.4 15.4-37 39.5-37.6 67.3-.6 27.7 12.2 52.1 36.1 70.7 24.8 19.2 67.7 30.9 120.1 30.9 52.4 0 95.2-11.7 120.1-30.9 23.9-18.6 36.8-43.1 36.1-70.7-.7-27.7-14.2-51.9-37.6-67.3-6.2-4.2-13.1-7.8-20.5-11.1-16-7.1-34.6-12.9-55.4-17.3-35.5-7.4-76.1-11.7-119.2-11.7-43.1 0-83.6 4.2-119.2 11.7z"/></g></svg>